<svg width="109" height="35" viewBox="0 0 109 35" fill="none" xmlns="http://www.w3.org/2000/svg">
<path d="M13.32 4.856H8.856C8.344 4.856 8.088 4.984 8.088 5.24V35H3.048C1.96 35 1.24 34.824 0.888 34.472C0.568 34.12 0.408 33.384 0.408 32.264V3.032C0.408 1.912 0.568 1.176 0.888 0.823999C1.24 0.471998 1.96 0.295998 3.048 0.295998H13.32V4.856ZM15.24 0.295998H20.28C21.368 0.295998 22.072 0.471998 22.392 0.823999C22.744 1.176 22.92 1.912 22.92 3.032V32.216C22.92 33.336 22.744 34.088 22.392 34.472C22.04 34.824 21.336 35 20.28 35H15.24V18.92H10.008V14.36H15.24V0.295998ZM44.8238 24.536H51.5438C51.8958 24.536 52.0718 24.76 52.0718 25.208V33.656C52.0718 34.552 51.6238 35 50.7278 35H39.1118V30.44H43.5758C44.0878 30.44 44.3438 30.392 44.3438 30.296C44.3758 30.168 44.3918 30.024 44.3918 29.864V25.064C44.3918 24.808 44.4238 24.664 44.4878 24.632C44.5518 24.568 44.6638 24.536 44.8238 24.536ZM37.4318 35H32.3918C31.3038 35 30.5838 34.824 30.2318 34.472C29.9118 34.12 29.7518 33.384 29.7518 32.264V3.032C29.7518 1.912 29.9118 1.176 30.2318 0.823999C30.5838 0.471998 31.3038 0.295998 32.3918 0.295998H37.4318V35ZM64.2443 35H59.2043C58.1163 35 57.3963 34.824 57.0443 34.472C56.7243 34.12 56.5643 33.384 56.5643 32.264V3.032C56.5643 1.912 56.7243 1.176 57.0443 0.823999C57.3963 0.471998 58.1163 0.295998 59.2043 0.295998H64.2443V35ZM79.0763 28.28V32.36C79.0763 33.448 78.9003 34.168 78.5483 34.52C78.1963 34.84 77.4603 35 76.3403 35H66.1643V28.28H79.0763ZM76.1963 14.12V17C76.1963 18.152 76.0843 18.888 75.8603 19.208C75.6363 19.496 74.9963 19.64 73.9403 19.64H66.1643V14.12H76.1963ZM78.5963 0.295998V4.376C78.5963 5.464 78.4203 6.184 78.0683 6.536C77.7163 6.856 76.9803 7.016 75.8603 7.016H66.1643V0.295998H78.5963ZM95.4971 19.928H93.7691C93.1931 19.928 92.8251 20.04 92.6651 20.264C92.5051 20.456 92.4251 20.808 92.4251 21.32V35H85.9451C85.1131 35 84.5371 34.872 84.2171 34.616C83.9291 34.328 83.7851 33.864 83.7851 33.224V18.824C83.7851 17.64 84.0251 16.776 84.5051 16.232C84.9851 15.656 85.8331 15.368 87.0491 15.368H95.4971V19.928ZM106.921 35H100.921C99.8331 35 99.1131 34.824 98.7611 34.472C98.4411 34.12 98.2811 33.384 98.2811 32.264V24.776C98.2811 23.656 98.4411 22.92 98.7611 22.568C99.1131 22.216 99.8331 22.04 100.921 22.04H106.921V35ZM93.1931 13.16H87.1931C86.1051 13.16 85.3851 12.984 85.0331 12.632C84.7131 12.28 84.5531 11.544 84.5531 10.424V2.984C84.5531 1.864 84.7131 1.128 85.0331 0.775997C85.3851 0.423998 86.1051 0.247998 87.1931 0.247998H93.1931V13.16ZM99.8651 0.295998H106.345C107.273 0.295998 107.865 0.471998 108.121 0.823999C108.377 1.176 108.505 1.912 108.505 3.032V17.624C108.505 18.424 108.393 19.016 108.169 19.4C107.945 19.752 107.449 19.928 106.681 19.928H97.4171V15.368H98.5691C99.1451 15.368 99.4971 15.272 99.6251 15.08C99.7851 14.856 99.8651 14.488 99.8651 13.976V0.295998Z" fill="white"/>
</svg>
